<?xml version="1.0" encoding="iso-8859-1"?>
<!-- Uploaded to: SVG Repo, www.svgrepo.com, Generator: SVG Repo Mixer Tools -->
<svg height="800px" width="800px" version="1.1" id="Layer_1" xmlns="http://www.w3.org/2000/svg" xmlns:xlink="http://www.w3.org/1999/xlink" 
	 viewBox="0 0 512 512" xml:space="preserve">
<g transform="translate(1 1)">
	<g>
		<path style="fill:#FFDD09;" d="M289.133,297.667v25.6c0,5.12-3.413,8.533-8.533,8.533H255v25.6c0,5.12-3.413,8.533-8.533,8.533
			H229.4c-5.12,0-8.533-3.413-8.533-8.533v-59.733H152.6V485.4c0,9.387,7.68,17.067,17.067,17.067h170.667
			c9.387,0,17.067-7.68,17.067-17.067V297.667H289.133z"/>
		<path style="fill:#FFDD09;" d="M434.2,127c-4.267-17.92-7.68-35.84-17.067-51.2c-25.6-42.667-76.8-68.267-127.147-68.267H255
			h-34.987c-50.347,0-100.693,25.6-127.147,68.267C83.48,91.16,80.067,109.08,75.8,127L31.427,297.667
			c-2.56,9.387,3.413,18.773,11.947,20.48l33.28,8.533c9.387,2.56,18.773-2.56,20.48-11.947l35.84-130.56
			c0.853-4.267,5.12-6.827,9.387-6.827c5.12,0,9.387,4.267,9.387,9.387v76.8h204.8v-75.947c0-5.12,4.267-9.387,9.387-9.387
			c4.267,0,8.533,2.56,9.387,6.827l35.84,130.56c2.56,9.387,11.947,14.507,20.48,11.947L464.92,319
			c9.387-2.56,14.507-11.947,11.947-20.48L434.2,127z"/>
	</g>
	<g>
		<path style="fill:#FD9808;" d="M246.467,365.933H229.4c-5.12,0-8.533-3.413-8.533-8.533v-93.867H255V357.4
			C255,362.52,251.587,365.933,246.467,365.933"/>
		<path style="fill:#FD9808;" d="M280.6,331.8H255v-68.267h34.133v59.733C289.133,328.387,285.72,331.8,280.6,331.8"/>
		<path style="fill:#FD9808;" d="M289.133,263.533v34.133h76.8c5.12,0,8.533-3.413,8.533-8.533v-17.067
			c0-5.12-3.413-8.533-8.533-8.533H289.133z"/>
		<path style="fill:#FD9808;" d="M220.867,263.533h-76.8c-5.12,0-8.533,3.413-8.533,8.533v17.067c0,5.12,3.413,8.533,8.533,8.533
			h76.8V263.533z"/>
	</g>
	<path style="fill:#54C9FD;" d="M255,178.2L301.08,8.387c-3.413-0.853-6.827-0.853-11.093-0.853H255h-34.987
		c-3.413,0-7.68,0-11.093,0.853L255,178.2z"/>
	<path d="M246.467,374.467H229.4c-9.387,0-17.067-7.68-17.067-17.067v-93.867c0-5.12,3.413-8.533,8.533-8.533H255
		c5.12,0,8.533,3.413,8.533,8.533V357.4C263.533,366.787,255.853,374.467,246.467,374.467z M229.4,272.067V357.4h17.067v-85.333
		H229.4z"/>
	<path d="M280.6,340.333H255c-5.12,0-8.533-3.413-8.533-8.533v-68.267c0-5.12,3.413-8.533,8.533-8.533h34.133
		c5.12,0,8.533,3.413,8.533,8.533v59.733C297.667,332.653,289.987,340.333,280.6,340.333z M280.6,323.267v8.533V323.267
		L280.6,323.267z M263.533,323.267H280.6v-51.2h-17.067V323.267z"/>
	<path d="M365.933,306.2h-76.8c-5.12,0-8.533-3.413-8.533-8.533v-34.133c0-5.12,3.413-8.533,8.533-8.533h76.8
		c9.387,0,17.067,7.68,17.067,17.067v17.067C383,298.52,375.32,306.2,365.933,306.2z M297.667,289.133h68.267v-17.067h-68.267
		V289.133z"/>
	<path d="M220.867,306.2h-76.8c-9.387,0-17.067-7.68-17.067-17.067v-17.067c0-9.387,7.68-17.067,17.067-17.067h76.8
		c5.12,0,8.533,3.413,8.533,8.533v34.133C229.4,302.787,225.987,306.2,220.867,306.2z M144.067,272.067v17.067h68.267v-17.067
		H144.067z"/>
	<path d="M340.333,511H169.667c-14.507,0-25.6-11.093-25.6-25.6V297.667c0-5.12,3.413-8.533,8.533-8.533h68.267
		c5.12,0,8.533,3.413,8.533,8.533V357.4h17.067v-25.6c0-5.12,3.413-8.533,8.533-8.533h25.6v-25.6c0-5.12,3.413-8.533,8.533-8.533
		H357.4c5.12,0,8.533,3.413,8.533,8.533V485.4C365.933,499.907,354.84,511,340.333,511z M161.133,306.2v179.2
		c0,5.12,3.413,8.533,8.533,8.533h170.667c5.12,0,8.533-3.413,8.533-8.533V306.2h-51.2v17.067c0,9.387-7.68,17.067-17.067,17.067
		h-17.067V357.4c0,9.387-7.68,17.067-17.067,17.067H229.4c-9.387,0-17.067-7.68-17.067-17.067v-51.2H161.133z"/>
	<path d="M429.08,336.92c-11.093,0-21.333-7.68-24.747-18.773l-35.84-130.56c0-0.853-2.56-0.853-2.56,0v75.947
		c0,5.12-3.413,8.533-8.533,8.533H152.6c-5.12,0-8.533-3.413-8.533-8.533v-75.947c0-0.853-1.707-1.707-2.56,0l-35.84,130.56
		c-3.413,13.653-17.92,21.333-31.573,17.92l-33.28-8.533c-13.653-3.413-21.333-17.92-17.92-31.573l44.373-170.667
		c0.853-3.413,1.707-6.827,2.56-10.24c3.413-14.507,6.827-29.867,15.36-43.52C112.493,27.16,165.4-1,220.013-1h70.827
		c54.613,0,107.52,28.16,133.973,72.533c8.533,13.653,11.947,29.013,15.36,43.52c0.853,3.413,1.707,6.827,2.56,10.24l44.373,170.667
		c3.413,13.653-4.267,27.307-17.92,31.573l-33.28,8.533C433.347,336.067,431.64,336.92,429.08,336.92z M366.787,169.667
		c8.533,0,15.36,5.12,17.92,13.653l35.84,130.56c0.853,4.267,5.973,6.827,10.24,5.973l33.28-8.533
		c4.267-0.853,6.827-5.973,5.973-10.24l-44.373-170.667l0,0c-0.853-3.413-1.707-6.827-2.56-10.24
		c-3.413-13.653-6.827-27.307-13.653-38.4c-23.04-40.107-69.973-65.707-119.467-65.707H219.16c-48.64,0-95.573,25.6-119.467,64
		c-6.827,11.947-9.387,24.747-12.8,38.4c-0.853,3.413-1.707,6.827-2.56,10.24L39.96,299.373c-0.853,4.267,1.707,9.387,5.973,10.24
		l33.28,8.533c4.267,0.853,9.387-1.707,10.24-5.973l35.84-130.56c2.56-7.68,9.387-13.653,17.92-13.653
		c10.24,0,17.92,8.533,17.92,17.92V255h187.733v-67.413C348.867,178.2,357.4,169.667,366.787,169.667z"/>
	<path d="M255,186.733c-4.267,0-6.827-2.56-8.533-5.973l-46.08-170.667c-0.853-2.56,0-5.12,0.853-6.827
		c1.707-1.707,3.413-3.413,5.973-3.413C212.333-1,215.747-1,220.013-1h70.827c4.267,0,7.68,0,11.947,0.853
		c2.56,0,5.12,1.707,5.973,3.413c1.707,1.707,1.707,5.12,0.853,6.827l-46.08,169.813C262.68,184.173,259.267,186.733,255,186.733z
		 M220.013,16.067L255,145.773l35.84-129.707l0,0H220.013L220.013,16.067z"/>
	<path d="M237.933,272.067c-0.853,0-0.853,0-1.707,0c-4.267-0.853-7.68-5.12-6.827-10.24l17.067-85.333
		c0.853-4.267,5.12-7.68,10.24-6.827c4.267,0.853,7.68,5.12,6.827,10.24l-17.067,85.333
		C245.613,269.507,242.2,272.067,237.933,272.067z"/>
</g>
</svg>