<?xml version="1.0" encoding="iso-8859-1"?>
<!-- Uploaded to: SVG Repo, www.svgrepo.com, Generator: SVG Repo Mixer Tools -->
<svg height="800px" width="800px" version="1.1" id="Layer_1" xmlns="http://www.w3.org/2000/svg" xmlns:xlink="http://www.w3.org/1999/xlink" 
	 viewBox="0 0 512 512" xml:space="preserve">
<path style="fill:#FEE187;" d="M410.875,78.899L474.39,60.02c7.394-2.198,14.82,3.341,14.82,11.056v148.17
	c0,7.713-7.426,13.253-14.82,11.056l-63.515-18.879V95.979V78.899z"/>
<g>
	<path style="fill:#FFC61B;" d="M477.697,246.335c-2.612,0-5.215-0.381-7.737-1.13l-63.515-18.879
		c-6.595-1.961-11.118-8.023-11.118-14.902V78.901c0-6.88,4.523-12.943,11.118-14.902l63.515-18.879
		c2.523-0.749,5.124-1.13,7.737-1.13c14.921,0,27.061,12.152,27.061,27.089v148.17C504.758,234.183,492.618,246.335,477.697,246.335
		z M426.424,199.824l47.238,14.041V76.457l-47.238,14.041V199.824z"/>
	<path style="fill:#FFC61B;" d="M166.68,290.322c-83.298,0-153.139-59.246-159.001-134.879c-0.299-3.901-0.437-7.164-0.437-10.285
		c0-0.006,0-0.165,0-0.173C7.342,65.04,78.861,0,166.67,0c38.446,0,64.824,5.112,177.129,41.066
		c8.178,2.618,12.685,11.37,10.067,19.548c-2.618,8.178-11.372,12.687-19.548,10.067C220.799,34.337,199.266,31.095,166.67,31.095
		c-70.684,0-128.255,51.11-128.333,113.93c0,2.443,0.11,4.952,0.345,8.03c4.613,59.53,60.836,106.173,127.997,106.173
		c39.157,0,63.924-5.365,237.466-62.267c8.158-2.67,16.942,1.771,19.618,9.93c2.676,8.159-1.771,16.942-9.93,19.618
		C235.977,284.823,209.925,290.322,166.68,290.322z"/>
</g>
<path style="fill:#FEE187;" d="M166.678,274.776c13.173,0,24.707-0.553,39.887-3.134l48.614,191.997
	c4.215,16.648-8.368,32.813-25.54,32.813h-88.049c-14.551,0-26.347-11.796-26.347-26.347V266.169
	C131.223,271.707,148.556,274.776,166.678,274.776z"/>
<g>
	<path style="fill:#FFC61B;" d="M229.64,512h-88.049c-23.101,0-41.895-18.794-41.895-41.895V266.169c0-5.03,2.433-9.75,6.532-12.667
		c4.098-2.915,9.353-3.671,14.108-2.024c14.836,5.143,30.428,7.749,46.344,7.749c12.433,0,23.006-0.487,37.282-2.915
		c7.993-1.357,15.688,3.652,17.679,11.511l48.614,191.997c3.195,12.618,0.442,25.745-7.553,36.018
		C254.704,506.109,242.655,512,229.64,512z M130.791,286.592v183.513c0,5.955,4.845,10.799,10.799,10.799h88.049
		c4.594,0,7.312-2.61,8.522-4.165c1.211-1.556,3.075-4.831,1.947-9.285l-45.192-178.487c-9.96,1.082-18.811,1.354-28.236,1.354
		C154.528,290.322,142.52,289.072,130.791,286.592z"/>
	<path style="fill:#FFC61B;" d="M167.693,223.764c-43.342,0-78.604-35.262-78.604-78.604s35.262-78.604,78.604-78.604
		s78.604,35.262,78.604,78.604c0,8.587-6.961,15.548-15.548,15.548s-15.548-6.961-15.548-15.548
		c0-26.196-21.313-47.509-47.509-47.509s-47.509,21.314-47.509,47.51s21.313,47.509,47.509,47.509
		c8.587,0,15.548,6.961,15.548,15.548S176.28,223.764,167.693,223.764z"/>
	<path style="fill:#FFC61B;" d="M219.619,343.406h-33.998c-8.587,0-15.548-6.961-15.548-15.548c0-8.587,6.961-15.548,15.548-15.548
		h33.998c8.587,0,15.548,6.961,15.548,15.548C235.167,336.446,228.206,343.406,219.619,343.406z"/>
	<path style="fill:#FFC61B;" d="M227.395,395.848h-41.773c-8.587,0-15.548-6.961-15.548-15.548s6.961-15.548,15.548-15.548h41.773
		c8.587,0,15.548,6.961,15.548,15.548S235.982,395.848,227.395,395.848z"/>
</g>
</svg>