<?xml version="1.0" encoding="iso-8859-1"?>
<!-- Uploaded to: SVG Repo, www.svgrepo.com, Generator: SVG Repo Mixer Tools -->
<svg fill="#000000" height="800px" width="800px" version="1.1" id="Layer_1" xmlns="http://www.w3.org/2000/svg" xmlns:xlink="http://www.w3.org/1999/xlink" 
	 viewBox="0 0 508 508" xml:space="preserve">
<g>
	<g>
		<path d="M493.9,479.8h-8.7c-2.3-26.7-9-88-24.9-132.2c-6.8-18.9-25-31.7-45.3-31.7h-32V42.3C383,19,364,0,340.7,0H167.3
			C144,0,125,19,125,42.3v273.6H93c-20.3,0-38.5,12.7-45.3,31.7C31.8,391.8,25.1,453,22.8,479.8h-8.7c-7.8,0-14.1,6.3-14.1,14.1
			S6.3,508,14.1,508h479.8c7.8,0,14.1-6.3,14.1-14.1C508,486.1,501.7,479.8,493.9,479.8z M153.2,330.1c0-0.05,0-0.075,0-0.075V42.3
			c0-7.8,6.3-14.1,14.1-14.1h173.3c7.8,0,14.1,6.3,14.1,14.1V330v66.1c0,7.8-6.3,14.1-14.1,14.1H167.3c-7.8,0-14.1-6.3-14.1-14.1
			V330.1z M51.2,479.8c2.4-26.6,8.9-83.1,23.1-122.6c2.8-7.8,10.3-13,18.7-13h32v52.1c0,23.3,19,42.3,42.3,42.3h173.3
			c23.3,0,42.3-19,42.3-42.3v-52.1h32c8.4,0,15.9,5.2,18.7,13c14.2,39.4,20.7,96,23.1,122.6H51.2z"/>
	</g>
</g>
<g>
	<g>
		<path d="M312.5,56.5H195.6c-7.8,0-14.1,6.3-14.1,14.1v117.5c-0.1,7.8,6.3,14.1,14.1,14.1h116.9c7.8,0,14.1-6.3,14.1-14.1V70.6
			C326.6,62.8,320.3,56.5,312.5,56.5z M298.4,174h-88.7V84.7h88.7V174z"/>
	</g>
</g>
<g>
	<g>
		<path d="M208.7,233.4h-13.1c-7.8,0-14.1,6.3-14.1,14.1c-0.1,7.8,6.3,14.1,14.1,14.1h13.1c7.8,0,14.1-6.3,14.1-14.1
			S216.5,233.4,208.7,233.4z"/>
	</g>
</g>
<g>
	<g>
		<path d="M260.6,233.4h-13.1c-7.8,0-14.1,6.3-14.1,14.1s6.3,14.1,14.1,14.1h13.1c7.8,0,14.1-6.3,14.1-14.1S268.4,233.4,260.6,233.4
			z"/>
	</g>
</g>
<g>
	<g>
		<path d="M312.4,233.4h-13.1c-7.8,0-14.1,6.3-14.1,14.1s6.3,14.1,14.1,14.1h13.1c7.8,0,14.1-6.3,14.1-14.1
			C326.6,239.7,320.2,233.4,312.4,233.4z"/>
	</g>
</g>
<g>
	<g>
		<path d="M208.7,293.2h-13.1c-7.8,0-14.1,6.3-14.1,14.1c-0.1,7.8,6.3,14.1,14.1,14.1h13.1c7.8,0,14.1-6.3,14.1-14.1
			S216.5,293.2,208.7,293.2z"/>
	</g>
</g>
<g>
	<g>
		<path d="M260.6,293.2h-13.1c-7.8,0-14.1,6.3-14.1,14.1s6.3,14.1,14.1,14.1h13.1c7.8,0,14.1-6.3,14.1-14.1
			C274.7,299.5,268.4,293.2,260.6,293.2z"/>
	</g>
</g>
<g>
	<g>
		<path d="M312.4,293.2h-13.1c-7.8,0-14.1,6.3-14.1,14.1s6.3,14.1,14.1,14.1h13.1c7.8,0,14.1-6.3,14.1-14.1
			C326.6,299.5,320.2,293.2,312.4,293.2z"/>
	</g>
</g>
<g>
	<g>
		<path d="M208.7,353.1h-13.1c-7.8,0-14.1,6.3-14.1,14.1c-0.1,7.8,6.3,14.1,14.1,14.1h13.1c7.8,0,14.1-6.3,14.1-14.1
			C222.8,359.4,216.5,353.1,208.7,353.1z"/>
	</g>
</g>
<g>
	<g>
		<path d="M260.6,353.1h-13.1c-7.8,0-14.1,6.3-14.1,14.1c0,7.8,6.3,14.1,14.1,14.1h13.1c7.8,0,14.1-6.3,14.1-14.1
			C274.7,359.4,268.4,353.1,260.6,353.1z"/>
	</g>
</g>
<g>
	<g>
		<path d="M312.4,353.1h-13.1c-7.8,0-14.1,6.3-14.1,14.1c0,7.8,6.3,14.1,14.1,14.1h13.1c7.8,0,14.1-6.3,14.1-14.1
			C326.6,359.4,320.2,353.1,312.4,353.1z"/>
	</g>
</g>
</svg>